<?xml version="1.0" encoding="UTF-8" standalone="no" ?>
<!DOCTYPE svg PUBLIC "-//W3C//DTD SVG 1.1//EN" "http://www.w3.org/Graphics/SVG/1.1/DTD/svg11.dtd">
<svg xmlns="http://www.w3.org/2000/svg" xmlns:xlink="http://www.w3.org/1999/xlink" version="1.1" width="90" height="30" viewBox="0 0 900 300" xml:space="preserve">
<desc>Created with Fabric.js 4.6.0</desc>
<defs>
</defs>
<g transform="matrix(7 0 0 1.89 455.63 150.38)" id="8xh5_bWFvd8YJvp9Y-KQ-"  >
<path style="stroke: rgb(117,172,22); stroke-width: 0; stroke-dasharray: none; stroke-linecap: butt; stroke-dashoffset: 0; stroke-linejoin: miter; stroke-miterlimit: 4; fill: rgb(117,172,22); fill-rule: nonzero; opacity: 1;" vector-effect="non-scaling-stroke"  transform=" translate(0, 0)" d="M -52.88889 -41.42906 C -52.88893 -42.49951 -52.87532 -43.37528 -52.82846000000001 -44.31444 L -52.82846000000001 -44.31444 C -52.61477000000001 -48.5978 -51.712250000000004 -51.956329999999994 -50.555820000000004 -52.771499999999996 C -50.438970000000005 -52.85386999999999 -50.291650000000004 -52.888949999999994 -50.19675 -52.888889999999996 C -50.19675 -52.888889999999996 17.178580000000004 -52.888889999999996 50.363440000000004 -52.888889999999996 L 50.363440000000004 -52.888889999999996 C 51.75822 -52.888889999999996 52.88890000000001 -48.70533999999999 52.88890000000001 -43.544669999999996 L 52.88890000000001 42.77239 L 52.88890000000001 42.77239 C 52.88890000000001 48.35958 51.66476000000001 52.88889 50.15471000000001 52.88889 L -29.858869999999996 52.88889 L -50.24315 52.88889 C -50.93098 52.888940000000005 -51.51789 51.92118000000001 -52.02603 49.94783 C -52.59735 47.72912 -52.888889999999996 44.91857 -52.88888 41.62657 C -52.88888 14.218210000000003 -52.88888 -41.42905999999999 -52.88888 -41.42905999999999 z" stroke-linecap="round" />
</g>
<g transform="matrix(1 0 0 1 178.33 146.38)" id="efi2SAzRCXQ35FnpAVc4X"  >
<path style="stroke: rgb(117,172,22); stroke-width: 1; stroke-dasharray: none; stroke-linecap: butt; stroke-dashoffset: 0; stroke-linejoin: miter; stroke-miterlimit: 4; fill: rgb(255,255,255); fill-rule: nonzero; opacity: 1;" vector-effect="non-scaling-stroke"  transform=" translate(0, 0)" d="M -72.69961 -60 C -72.69961 -69.77611 -65.54475000000001 -78.07994 -55.876070000000006 -79.52519 L -52.69961000000001 -80 L 57.30038999999999 -80 L 58.143449999999994 -79.79282 L 58.143449999999994 -79.79282 C 67.04825 -77.60447 73.14528999999999 -69.40192 72.67407999999999 -60.24428 L 72.66150999999999 -60 L 72.14604999999999 60 L 72.26553999999999 61.55896 L 72.26553999999999 61.55896 C 72.95439999999999 70.5461 66.61335999999999 78.55064999999999 57.70706999999999 79.93671 L 57.30039999999999 80 L -52.69960000000001 80 L -54.11990000000001 80 L -54.11990000000001 80 C -63.24689000000001 80 -70.95992000000001 73.2345 -72.14943000000001 64.18536 L -72.6996 60 z" stroke-linecap="round" />
</g>
<g transform="matrix(0.99 0 0 1.12 174.7 145.44)" id="Ucd2N8bib0VfYqddbN8mS"  >
<path style="stroke: rgb(117,172,22); stroke-width: 1; stroke-dasharray: none; stroke-linecap: butt; stroke-dashoffset: 0; stroke-linejoin: miter; stroke-miterlimit: 4; fill: rgb(117,172,22); fill-rule: nonzero; opacity: 1;" vector-effect="non-scaling-stroke"  transform=" translate(0, 0)" d="M 19.28571 -60.6601 L 40.35714 -61.01724 L 39.64285 25.768469999999994 L 39.57065 26.700519999999994 L 39.57065 26.700519999999994 C 38.66688 38.367369999999994 31.582340000000002 48.960379999999994 20.48044 55.24475999999999 C 9.378540000000001 61.52913999999999 -4.422369999999997 62.75861999999999 -16.70792 58.55774999999999 L -19.642860000000002 57.55418999999999 L -19.642860000000002 57.55418999999999 L -19.642860000000002 57.55418999999999 C -31.183080000000004 52.574769999999994 -38.8745 42.52183999999999 -39.83914 31.157019999999992 L -40.35714 25.05418999999999 L -19.642850000000003 25.05418999999999 L -18.31219 32.12714999999999 L -18.31219 32.12714999999999 C -17.012420000000002 39.035959999999996 -10.382280000000002 44.15682999999999 -2.4999900000000004 44.33990999999999 L -2.4999900000000004 44.33990999999999 L -2.4999900000000004 44.33990999999999 L -2.4999900000000004 44.33990999999999 C 8.44178 44.25969999999999 17.59499 36.937299999999986 18.82706 27.27864999999999 L 18.92858 26.482769999999988 z" stroke-linecap="round" />
</g>
<g transform="matrix(1 0 0 1 309.97 165.38)" id="lQ6j_w2269DGcfpmRyknT"  >
<path style="stroke: rgb(117,172,22); stroke-width: 1; stroke-dasharray: none; stroke-linecap: butt; stroke-dashoffset: 0; stroke-linejoin: miter; stroke-miterlimit: 4; fill: rgb(255,255,255); fill-rule: nonzero; opacity: 1;" vector-effect="non-scaling-stroke"  transform=" translate(0, 0)" d="M -0.61526 35.78538 C -14.246699999999999 33.19762 -24.48108 21.839840000000002 -25.64024 8.013450000000002 L -25.89286 5.000250000000003 L 41.96428 5.000250000000003 L 41.43652 -11.303259999999996 L 41.43652 -11.303259999999996 C 41.09023 -22.000959999999996 36.43802 -32.10536 28.53536 -39.324 C 20.63271 -46.54264 10.149550000000001 -50.26358 -0.5357199999999978 -49.64261 L -0.5357199999999978 -49.64261 L -0.5357199999999978 -49.64261 L -0.5357199999999978 -49.64261 C -22.041249999999998 -48.38906 -39.37146 -31.54875 -41.24102 -10.087989999999998 L -41.96429 -1.7854699999999983 L -41.91343 4.8132100000000015 L -41.91343 4.8132100000000015 C -41.73451 28.0256 -23.991439999999997 47.32382 -0.8757299999999972 49.447779999999995 L 1.2500000000000027 49.6431 L 3.1585800000000024 49.69369 L 3.1585800000000024 49.69369 C 17.854660000000003 50.08322999999999 31.812670000000004 43.262449999999994 40.53572 31.428809999999995 L 40.53572 31.428809999999995 L 30.535719999999998 23.928809999999995 L 28.90919 25.468719999999994 L 28.90919 25.468719999999994 C 21.75659 32.240379999999995 12.291269999999997 36.030199999999994 2.4417100000000005 36.066039999999994 L 0.8928600000000004 36.07167999999999 z" stroke-linecap="round" />
</g>
<g transform="matrix(1 0 0 0.89 310.19 143.67)" id="v5OujmGaY5G57sbMA8OJA"  >
<path style="stroke: rgb(117,172,22); stroke-width: 1; stroke-dasharray: none; stroke-linecap: butt; stroke-dashoffset: 0; stroke-linejoin: miter; stroke-miterlimit: 4; fill: rgb(117,172,22); fill-rule: nonzero; opacity: 1;" vector-effect="non-scaling-stroke"  transform=" translate(0, 0)" d="M 1.21901 -14.81566 C -11.70175 -14.36558 -22.5596 -3.7235499999999995 -24.76184 10.64878 L -25.40121 14.82143 L 25.31308 14.82143 L 25.34242 14.34802 L 25.34242 14.34802 C 25.78986 7.1276 23.67014 0.0034399999999994435 19.45183 -5.449630000000001 C 15.233520000000002 -10.902700000000001 9.264040000000001 -14.23558 2.862960000000001 -14.711500000000001 L 1.384500000000001 -14.821420000000002 z" stroke-linecap="round" />
</g>
<g transform="matrix(1 0 0 1 400.93 164.94)" id="LJ28hl_6A6HLL5tCerZZX"  >
<path style="stroke: rgb(117,172,22); stroke-width: 1; stroke-dasharray: none; stroke-linecap: butt; stroke-dashoffset: 0; stroke-linejoin: miter; stroke-miterlimit: 4; fill: rgb(255,255,255); fill-rule: nonzero; opacity: 1;" vector-effect="non-scaling-stroke"  transform=" translate(0, 0)" d="M -39.8263 -47.64268 L 37.34492 -47.39454 L 37.34492 -35.23573 L -19.230759999999997 33.746900000000004 L 40.818870000000004 33.99504 L 40.570730000000005 47.394540000000006 L -40.81884999999999 47.642680000000006 L -40.81884999999999 35.73201 L 15.508690000000009 -33.498760000000004 L -40.07443999999999 -34.24318 z" stroke-linecap="round" />
</g>
<g transform="matrix(1 0 0 1 493.48 165.19)" id="hEwzYIJ3HJm0IXEwppuMC"  >
<path style="stroke: rgb(117,172,22); stroke-width: 1; stroke-dasharray: none; stroke-linecap: butt; stroke-dashoffset: 0; stroke-linejoin: miter; stroke-miterlimit: 4; fill: rgb(255,255,255); fill-rule: nonzero; opacity: 1;" vector-effect="non-scaling-stroke"  transform=" translate(0, 0)" d="M -39.33002 -47.39454 L 8.80894 -47.39454 L 8.80894 33.49876 L 39.82631 33.25062 L 39.82631 47.39454 L -39.578160000000004 47.39454 L -39.8263 33.00248 L -7.568240000000003 33.00248 L -7.320100000000003 -33.00248 L -39.08189 -33.25062 z" stroke-linecap="round" />
</g>
<g transform="matrix(1.25 0 0 1.25 450 93.49)" id="fpRRLhPa--ZFKGJXw9RLC"  >
<path style="stroke: rgb(117,172,22); stroke-width: 1; stroke-dasharray: none; stroke-linecap: butt; stroke-dashoffset: 0; stroke-linejoin: miter; stroke-miterlimit: 4; fill: rgb(255,255,255); fill-rule: nonzero; opacity: 1;" vector-effect="non-scaling-stroke"  transform=" translate(0, 0)" d="M 0 -7.81638 C 4.31464 -7.81638 7.81638 -4.31464 7.81638 0 C 7.81638 4.31464 4.31464 7.81638 0 7.81638 C -4.31464 7.81638 -7.81638 4.31464 -7.81638 0 C -7.81638 -4.31464 -4.31464 -7.81638 0 -7.81638 z" stroke-linecap="round" />
</g>
<g transform="matrix(1 0 0 1 580.85 164.31)" id="ul5PHsJm6Y8XwxNyrHDmB"  >
<path style="stroke: rgb(117,172,22); stroke-width: 1; stroke-dasharray: none; stroke-linecap: butt; stroke-dashoffset: 0; stroke-linejoin: miter; stroke-miterlimit: 4; fill: rgb(255,255,255); fill-rule: nonzero; opacity: 1;" vector-effect="non-scaling-stroke"  transform=" translate(0, 0)" d="M -38.83375 -46.5082 L -24.68983 -46.5082 L -23.94541 -31.868000000000002 L -23.02977 -33.24412 L -23.02977 -33.24412 C -16.50222 -43.05439 -5.392099999999999 -48.82275 6.387420000000002 -48.517480000000006 L 7.320100000000002 -48.49331000000001 L 7.458650000000002 -48.49721000000001 L 7.458650000000002 -48.49721000000001 C 23.24895 -48.94203000000001 36.738960000000006 -37.19730000000001 38.47215 -21.49611000000001 L 38.83375 -18.22035000000001 L 39.08189 48.52902999999999 L 22.456580000000002 48.28088999999999 L 22.208440000000003 -16.483380000000004 L 22.208440000000003 -16.483380000000004 L 22.208440000000003 -16.483380000000004 C 21.908610000000003 -26.597420000000003 13.609070000000003 -34.633250000000004 3.4906200000000034 -34.606440000000006 L 0.12407000000000323 -34.59752 L 0.12407000000000323 -34.59752 L 0.12407000000000323 -34.59752 C -8.942799999999997 -33.804610000000004 -17.126129999999996 -28.84258 -22.021189999999997 -21.169560000000004 L -22.952849999999998 -19.709180000000003 L -23.449129999999997 48.52902999999999 L -39.08188 48.28088999999999 z" stroke-linecap="round" />
</g>
<g transform="matrix(1 0 0 1 670.55 145.09)" id="LHh2gex2ZWLSZIZstXKPo"  >
<path style="stroke: rgb(117,172,22); stroke-width: 1; stroke-dasharray: none; stroke-linecap: butt; stroke-dashoffset: 0; stroke-linejoin: miter; stroke-miterlimit: 4; fill: rgb(255,255,255); fill-rule: nonzero; opacity: 1;" vector-effect="non-scaling-stroke"  transform=" translate(0, 0)" d="M -39.20596 -67.74194 L -22.58065 -67.4938 L -22.58065 -13.399509999999992 L -22.4026 -13.661799999999992 L -22.4026 -13.661799999999992 C -15.204 -24.26668999999999 -2.9528 -30.29713999999999 9.841749999999998 -29.533539999999995 L 9.925559999999997 -29.528539999999996 L 10.061149999999998 -29.519949999999994 L 10.061149999999998 -29.519949999999994 C 24.402939999999997 -28.611259999999994 36.16244999999999 -17.809949999999994 38.283919999999995 -3.596859999999996 L 38.70967999999999 -0.7444199999999959 L 39.20595999999999 67.49379 L 23.07692999999999 67.24565 L 22.82878999999999 1.488829999999993 L 22.81416999999999 1.402609999999993 L 22.81416999999999 1.402609999999993 C 21.07591999999999 -8.845990000000008 11.86103999999999 -16.11454000000001 1.4894399999999912 -15.417990000000007 L 0.9925699999999913 -15.384620000000007 L 0.9925699999999913 -15.384620000000007 L 0.9925699999999913 -15.384620000000007 C -7.875440000000008 -14.624690000000006 -15.972640000000007 -10.039850000000008 -21.18645000000001 -2.826300000000007 L -22.33249000000001 -1.240700000000007 L -22.33249000000001 67.49378999999999 L -38.957800000000006 67.74193 z" stroke-linecap="round" />
</g>
<g transform="matrix(1 0 0 1 760.62 165.34)" id="7m4h5Zc91a8m4WgJW0fhK"  >
<path style="stroke: rgb(117,172,22); stroke-width: 1; stroke-dasharray: none; stroke-linecap: butt; stroke-dashoffset: 0; stroke-linejoin: miter; stroke-miterlimit: 4; fill: rgb(255,255,255); fill-rule: nonzero; opacity: 1;" vector-effect="non-scaling-stroke"  transform=" translate(0, 0)" d="M -43.49482 -4.77738 C -43.836679999999994 -16.92682 -39.07438 -28.66409 -30.363739999999996 -37.14055 C -21.653099999999995 -45.61700999999999 -9.790429999999997 -50.05775 2.3451800000000027 -49.385 L 2.7382200000000028 -49.363209999999995 L 3.4845400000000026 -49.27538 L 3.4845400000000026 -49.27538 C 26.076190000000004 -46.61678 43.17403 -27.586129999999997 43.40711 -4.8397799999999975 L 43.51203 5.398700000000002 L 42.54001 12.377260000000001 L 42.54001 12.377260000000001 C 39.55854 33.78264 21.154870000000003 49.65081 -0.45621999999999474 49.44982 L -0.8332099999999947 49.446310000000004 L -0.8332099999999947 49.446310000000004 L -0.8332099999999947 49.446310000000004 C -24.437949999999994 49.20085 -43.43509999999999 29.978970000000004 -43.402969999999996 6.372980000000005 L -43.39272999999999 -1.1489299999999947 z" stroke-linecap="round" />
</g>
<g transform="matrix(0.61 0 0 0.73 761.07 165.55)" id="FIthZq9yxvr7V5Ip7RDX_"  >
<path style="stroke: rgb(117,172,22); stroke-width: 1; stroke-dasharray: none; stroke-linecap: butt; stroke-dashoffset: 0; stroke-linejoin: miter; stroke-miterlimit: 4; fill: rgb(117,172,22); fill-rule: nonzero; opacity: 1;" vector-effect="non-scaling-stroke"  transform=" translate(0, 0)" d="M -43.33102 -12.66065 C -43.22525 -22.485190000000003 -38.42965 -31.86834 -30.00804 -38.72865 C -21.58642 -45.588950000000004 -10.23507 -49.359210000000004 1.5279500000000006 -49.203070000000004 L 2.1905700000000006 -49.19427 L 5.13142 -48.64645 L 5.13142 -48.64645 C 27.27162 -44.5222 43.08671 -28.197560000000003 43.29437 -9.253950000000003 L 43.45237 5.160099999999996 L 41.700140000000005 17.278349999999996 L 41.700140000000005 17.278349999999996 C 39.14546000000001 34.94624999999999 21.617420000000006 48.455459999999995 0.325010000000006 49.167019999999994 L -0.892859999999994 49.207719999999995 L -1.100549999999994 49.19725999999999 L -1.100549999999994 49.19725999999999 C -24.257119999999993 48.03085999999999 -42.48490999999999 32.24655999999999 -43.04202999999999 12.878179999999993 L -43.45237999999999 -1.3875200000000074 z" stroke-linecap="round" />
</g>
<g transform="matrix(1 0 0 1 455.61 150)" id="WdsK3s3A4MTn2fYY1hhjM"  >
<path style="stroke: rgb(117,172,22); stroke-width: 1; stroke-dasharray: none; stroke-linecap: butt; stroke-dashoffset: 0; stroke-linejoin: miter; stroke-miterlimit: 4; fill: rgb(255,255,255); fill-opacity: 0; fill-rule: nonzero; opacity: 1;" vector-effect="non-scaling-stroke"  transform=" translate(0, 0)" d="M -369.94595 -81.28665 C -368.30523 -91.64573999999999 -359.36643 -99.26798 -348.87823 -99.25139999999999 L -348.55226 -99.25088 L 347.74404 -99.99162 L 348.16936 -100.00534 L 348.16936 -100.00534 C 354.01387 -100.19387 359.67631 -97.95787 363.81518 -93.82707 C 367.95406 -89.69627000000001 370.20110999999997 -84.03821 370.024 -78.19334 L 369.96626 -76.28791000000001 L 369.22551999999996 80.00838999999999 L 369.13422999999995 82.16188 L 369.13422999999995 82.16188 C 368.70224999999994 92.35238 360.16161999999997 100.3042 349.9662599999999 100.00838999999999 L 349.9662599999999 100.00838999999999 L -351.5152200000001 100.00838999999999 L -351.8698700000001 99.98262 L -351.8698700000001 99.98262 C -359.5598700000001 99.42384 -366.0958100000001 94.15167 -368.2693600000001 86.75411 L -370.03374000000014 80.74913 L -370.03374000000014 -80.73235000000001 z" stroke-linecap="round" />
</g>
</svg>